<svg width="66" height="63" viewBox="0 0 66 63" fill="none" xmlns="http://www.w3.org/2000/svg">
<ellipse cx="33" cy="31.5" rx="33" ry="31.5" fill="white"/>
<path d="M33.0016 16.1667C41.7463 16.1667 48.8349 23.2552 48.8349 32C48.8349 40.7447 41.7463 47.8333 33.0016 47.8333C30.2034 47.8381 27.4545 47.0976 25.0374 45.6879L17.1746 47.8333L19.3152 39.9673C17.9044 37.5495 17.1633 34.7994 17.1682 32C17.1682 23.2552 24.2568 16.1667 33.0016 16.1667ZM27.6056 24.5583L27.2889 24.571C27.0842 24.5851 26.8841 24.6389 26.6999 24.7293C26.5282 24.8267 26.3715 24.9483 26.2344 25.0903C26.0444 25.2692 25.9367 25.4244 25.8212 25.5748C25.2355 26.3363 24.9202 27.2711 24.925 28.2317C24.9282 29.0075 25.1308 29.7627 25.4475 30.4689C26.0951 31.8971 27.1607 33.4092 28.5667 34.8104C28.9055 35.1477 29.238 35.4865 29.5958 35.8016C31.3429 37.3396 33.4248 38.4489 35.6758 39.0411L36.5752 39.1788C36.8681 39.1947 37.161 39.1725 37.4555 39.1582C37.9165 39.1339 38.3667 39.0091 38.7744 38.7925C38.9816 38.6854 39.1839 38.5691 39.3808 38.4442C39.3808 38.4442 39.4479 38.3988 39.5787 38.3017C39.7925 38.1433 39.9239 38.0309 40.1012 37.8457C40.2342 37.7084 40.3451 37.549 40.4337 37.3675C40.5572 37.1094 40.6807 36.617 40.7314 36.2069C40.7694 35.8934 40.7583 35.7224 40.7536 35.6163C40.7472 35.4469 40.6063 35.2712 40.4527 35.1967L39.5312 34.7835C39.5312 34.7835 38.1537 34.1834 37.3114 33.8002C37.2232 33.7619 37.1288 33.7399 37.0327 33.7353C36.9244 33.724 36.8149 33.7361 36.7116 33.7708C36.6084 33.8055 36.5138 33.862 36.4342 33.9364C36.4263 33.9332 36.3202 34.0235 35.1755 35.4105C35.1098 35.4988 35.0193 35.5655 34.9155 35.6022C34.8117 35.6388 34.6994 35.6438 34.5928 35.6163C34.4896 35.5888 34.3886 35.5539 34.2904 35.5118C34.0941 35.4295 34.026 35.3978 33.8914 35.3408C32.9824 34.9448 32.1409 34.409 31.3977 33.7527C31.1982 33.5786 31.0129 33.3886 30.8229 33.2049C30.2 32.6083 29.6572 31.9335 29.2079 31.1972L29.1145 31.0468C29.0484 30.9452 28.9942 30.8363 28.953 30.7222C28.8928 30.4895 29.0496 30.3027 29.0496 30.3027C29.0496 30.3027 29.4343 29.8815 29.6132 29.6535C29.7874 29.4318 29.9347 29.2165 30.0297 29.0629C30.2165 28.7621 30.2751 28.4533 30.1769 28.2142C29.7336 27.1312 29.2755 26.054 28.8026 24.9827C28.7092 24.7705 28.4321 24.6185 28.1803 24.5884C28.0948 24.5779 28.0093 24.5694 27.9238 24.5631C27.7112 24.5509 27.498 24.553 27.2857 24.5694L27.6056 24.5583Z" fill="#272C30"/>
</svg>
