<svg width="66" height="63" viewBox="0 0 66 63" fill="none" xmlns="http://www.w3.org/2000/svg">
<ellipse cx="33" cy="31.5" rx="33" ry="31.5" fill="white"/>
<path d="M47.5833 13.875C48.6884 13.875 49.7482 14.2876 50.5296 15.0222C51.311 15.7567 51.75 16.7529 51.75 17.7917V45.2083C51.75 46.2471 51.311 47.2433 50.5296 47.9778C49.7482 48.7124 48.6884 49.125 47.5833 49.125H18.4167C17.3116 49.125 16.2518 48.7124 15.4704 47.9778C14.689 47.2433 14.25 46.2471 14.25 45.2083V17.7917C14.25 16.7529 14.689 15.7567 15.4704 15.0222C16.2518 14.2876 17.3116 13.875 18.4167 13.875H47.5833ZM46.5417 44.2292V33.85C46.5417 32.1568 45.8261 30.533 44.5524 29.3357C43.2787 28.1384 41.5513 27.4658 39.75 27.4658C37.9792 27.4658 35.9167 28.4842 34.9167 30.0117V27.8379H29.1042V44.2292H34.9167V34.5746C34.9167 33.0667 36.2083 31.8329 37.8125 31.8329C38.586 31.8329 39.3279 32.1218 39.8749 32.6359C40.4219 33.1501 40.7292 33.8474 40.7292 34.5746V44.2292H46.5417ZM22.3333 24.7633C23.2616 24.7633 24.1518 24.4167 24.8082 23.7997C25.4646 23.1827 25.8333 22.3459 25.8333 21.4733C25.8333 19.6521 24.2708 18.1638 22.3333 18.1638C21.3995 18.1638 20.504 18.5124 19.8437 19.1331C19.1834 19.7538 18.8125 20.5956 18.8125 21.4733C18.8125 23.2946 20.3958 24.7633 22.3333 24.7633ZM25.2292 44.2292V27.8379H19.4583V44.2292H25.2292Z" fill="#272C30"/>
</svg>
