<svg width="66" height="63" viewBox="0 0 66 63" fill="none" xmlns="http://www.w3.org/2000/svg">
<ellipse cx="33" cy="31.5" rx="33" ry="31.5" fill="white"/>
<path d="M40.3333 16.25C42.7645 16.25 45.0961 17.1719 46.8151 18.8128C48.5342 20.4538 49.5 22.6794 49.5 25V39C49.5 41.3206 48.5342 43.5462 46.8151 45.1872C45.0961 46.8281 42.7645 47.75 40.3333 47.75H25.6667C23.2355 47.75 20.9039 46.8281 19.1849 45.1872C17.4658 43.5462 16.5 41.3206 16.5 39V25C16.5 22.6794 17.4658 20.4538 19.1849 18.8128C20.9039 17.1719 23.2355 16.25 25.6667 16.25H40.3333ZM33 25C31.0551 25 29.1898 25.7375 27.8146 27.0503C26.4393 28.363 25.6667 30.1435 25.6667 32C25.6667 33.8565 26.4393 35.637 27.8146 36.9497C29.1898 38.2625 31.0551 39 33 39C34.9449 39 36.8102 38.2625 38.1854 36.9497C39.5607 35.637 40.3333 33.8565 40.3333 32C40.3333 30.1435 39.5607 28.363 38.1854 27.0503C36.8102 25.7375 34.9449 25 33 25ZM33 28.5C33.9725 28.5 34.9051 28.8687 35.5927 29.5251C36.2804 30.1815 36.6667 31.0717 36.6667 32C36.6667 32.9283 36.2804 33.8185 35.5927 34.4749C34.9051 35.1313 33.9725 35.5 33 35.5C32.0275 35.5 31.0949 35.1313 30.4073 34.4749C29.7196 33.8185 29.3333 32.9283 29.3333 32C29.3333 31.0717 29.7196 30.1815 30.4073 29.5251C31.0949 28.8687 32.0275 28.5 33 28.5ZM41.25 22.375C40.7638 22.375 40.2975 22.5594 39.9536 22.8876C39.6098 23.2158 39.4167 23.6609 39.4167 24.125C39.4167 24.5891 39.6098 25.0342 39.9536 25.3624C40.2975 25.6906 40.7638 25.875 41.25 25.875C41.7362 25.875 42.2025 25.6906 42.5464 25.3624C42.8902 25.0342 43.0833 24.5891 43.0833 24.125C43.0833 23.6609 42.8902 23.2158 42.5464 22.8876C42.2025 22.5594 41.7362 22.375 41.25 22.375Z" fill="#272C30"/>
</svg>
