<svg width="505" height="108" viewBox="0 0 505 108" fill="none" xmlns="http://www.w3.org/2000/svg">
<g filter="url(#filter0_d_4372_43)">
<mask id="path-1-outside-1_4372_43" maskUnits="userSpaceOnUse" x="119.6" y="24" width="263" height="60" fill="black">
<rect fill="white" x="119.6" y="24" width="263" height="60"/>
<path d="M132.91 32.86V82H120.94V32.86H132.91ZM139.205 62.4C139.205 58.3867 139.952 54.8633 141.445 51.83C142.985 48.7967 145.062 46.4633 147.675 44.83C150.288 43.1967 153.205 42.38 156.425 42.38C158.992 42.38 161.325 42.9167 163.425 43.99C165.572 45.0633 167.252 46.51 168.465 48.33V30.2H180.435V82H168.465V76.4C167.345 78.2667 165.735 79.76 163.635 80.88C161.582 82 159.178 82.56 156.425 82.56C153.205 82.56 150.288 81.7433 147.675 80.11C145.062 78.43 142.985 76.0733 141.445 73.04C139.952 69.96 139.205 66.4133 139.205 62.4ZM168.465 62.47C168.465 59.4833 167.625 57.1267 165.945 55.4C164.312 53.6733 162.305 52.81 159.925 52.81C157.545 52.81 155.515 53.6733 153.835 55.4C152.202 57.08 151.385 59.4133 151.385 62.4C151.385 65.3867 152.202 67.7667 153.835 69.54C155.515 71.2667 157.545 72.13 159.925 72.13C162.305 72.13 164.312 71.2667 165.945 69.54C167.625 67.8133 168.465 65.4567 168.465 62.47ZM225.915 61.84C225.915 62.96 225.845 64.1267 225.705 65.34H198.615C198.801 67.7667 199.571 69.6333 200.925 70.94C202.325 72.2 204.028 72.83 206.035 72.83C209.021 72.83 211.098 71.57 212.265 69.05H225.005C224.351 71.6167 223.161 73.9267 221.435 75.98C219.755 78.0333 217.631 79.6433 215.065 80.81C212.498 81.9767 209.628 82.56 206.455 82.56C202.628 82.56 199.221 81.7433 196.235 80.11C193.248 78.4767 190.915 76.1433 189.235 73.11C187.555 70.0767 186.715 66.53 186.715 62.47C186.715 58.41 187.531 54.8633 189.165 51.83C190.845 48.7967 193.178 46.4633 196.165 44.83C199.151 43.1967 202.581 42.38 206.455 42.38C210.235 42.38 213.595 43.1733 216.535 44.76C219.475 46.3467 221.761 48.61 223.395 51.55C225.075 54.49 225.915 57.92 225.915 61.84ZM213.665 58.69C213.665 56.6367 212.965 55.0033 211.565 53.79C210.165 52.5767 208.415 51.97 206.315 51.97C204.308 51.97 202.605 52.5533 201.205 53.72C199.851 54.8867 199.011 56.5433 198.685 58.69H213.665ZM229.849 62.4C229.849 58.3867 230.596 54.8633 232.089 51.83C233.629 48.7967 235.706 46.4633 238.319 44.83C240.933 43.1967 243.849 42.38 247.069 42.38C249.823 42.38 252.226 42.94 254.279 44.06C256.379 45.18 257.989 46.65 259.109 48.47V42.94H271.079V82H259.109V76.47C257.943 78.29 256.309 79.76 254.209 80.88C252.156 82 249.753 82.56 246.999 82.56C243.826 82.56 240.933 81.7433 238.319 80.11C235.706 78.43 233.629 76.0733 232.089 73.04C230.596 69.96 229.849 66.4133 229.849 62.4ZM259.109 62.47C259.109 59.4833 258.269 57.1267 256.589 55.4C254.956 53.6733 252.949 52.81 250.569 52.81C248.189 52.81 246.159 53.6733 244.479 55.4C242.846 57.08 242.029 59.4133 242.029 62.4C242.029 65.3867 242.846 67.7667 244.479 69.54C246.159 71.2667 248.189 72.13 250.569 72.13C252.949 72.13 254.956 71.2667 256.589 69.54C258.269 67.8133 259.109 65.4567 259.109 62.47ZM291.709 30.2V82H279.739V30.2H291.709Z"/>
<path d="M332.374 32.86V42.45H312.354V52.81H327.334V62.12H312.354V82H300.384V32.86H332.374ZM344.685 38.88C342.585 38.88 340.858 38.2733 339.505 37.06C338.198 35.8 337.545 34.26 337.545 32.44C337.545 30.5733 338.198 29.0333 339.505 27.82C340.858 26.56 342.585 25.93 344.685 25.93C346.738 25.93 348.418 26.56 349.725 27.82C351.078 29.0333 351.755 30.5733 351.755 32.44C351.755 34.26 351.078 35.8 349.725 37.06C348.418 38.2733 346.738 38.88 344.685 38.88ZM350.635 42.94V82H338.665V42.94H350.635ZM381.079 71.85V82H374.989C370.649 82 367.266 80.95 364.839 78.85C362.413 76.7033 361.199 73.2267 361.199 68.42V52.88H356.439V42.94H361.199V33.42H373.169V42.94H381.009V52.88H373.169V68.56C373.169 69.7267 373.449 70.5667 374.009 71.08C374.569 71.5933 375.503 71.85 376.809 71.85H381.079Z"/>
</mask>
<path d="M132.91 32.86V82H120.94V32.86H132.91ZM139.205 62.4C139.205 58.3867 139.952 54.8633 141.445 51.83C142.985 48.7967 145.062 46.4633 147.675 44.83C150.288 43.1967 153.205 42.38 156.425 42.38C158.992 42.38 161.325 42.9167 163.425 43.99C165.572 45.0633 167.252 46.51 168.465 48.33V30.2H180.435V82H168.465V76.4C167.345 78.2667 165.735 79.76 163.635 80.88C161.582 82 159.178 82.56 156.425 82.56C153.205 82.56 150.288 81.7433 147.675 80.11C145.062 78.43 142.985 76.0733 141.445 73.04C139.952 69.96 139.205 66.4133 139.205 62.4ZM168.465 62.47C168.465 59.4833 167.625 57.1267 165.945 55.4C164.312 53.6733 162.305 52.81 159.925 52.81C157.545 52.81 155.515 53.6733 153.835 55.4C152.202 57.08 151.385 59.4133 151.385 62.4C151.385 65.3867 152.202 67.7667 153.835 69.54C155.515 71.2667 157.545 72.13 159.925 72.13C162.305 72.13 164.312 71.2667 165.945 69.54C167.625 67.8133 168.465 65.4567 168.465 62.47ZM225.915 61.84C225.915 62.96 225.845 64.1267 225.705 65.34H198.615C198.801 67.7667 199.571 69.6333 200.925 70.94C202.325 72.2 204.028 72.83 206.035 72.83C209.021 72.83 211.098 71.57 212.265 69.05H225.005C224.351 71.6167 223.161 73.9267 221.435 75.98C219.755 78.0333 217.631 79.6433 215.065 80.81C212.498 81.9767 209.628 82.56 206.455 82.56C202.628 82.56 199.221 81.7433 196.235 80.11C193.248 78.4767 190.915 76.1433 189.235 73.11C187.555 70.0767 186.715 66.53 186.715 62.47C186.715 58.41 187.531 54.8633 189.165 51.83C190.845 48.7967 193.178 46.4633 196.165 44.83C199.151 43.1967 202.581 42.38 206.455 42.38C210.235 42.38 213.595 43.1733 216.535 44.76C219.475 46.3467 221.761 48.61 223.395 51.55C225.075 54.49 225.915 57.92 225.915 61.84ZM213.665 58.69C213.665 56.6367 212.965 55.0033 211.565 53.79C210.165 52.5767 208.415 51.97 206.315 51.97C204.308 51.97 202.605 52.5533 201.205 53.72C199.851 54.8867 199.011 56.5433 198.685 58.69H213.665ZM229.849 62.4C229.849 58.3867 230.596 54.8633 232.089 51.83C233.629 48.7967 235.706 46.4633 238.319 44.83C240.933 43.1967 243.849 42.38 247.069 42.38C249.823 42.38 252.226 42.94 254.279 44.06C256.379 45.18 257.989 46.65 259.109 48.47V42.94H271.079V82H259.109V76.47C257.943 78.29 256.309 79.76 254.209 80.88C252.156 82 249.753 82.56 246.999 82.56C243.826 82.56 240.933 81.7433 238.319 80.11C235.706 78.43 233.629 76.0733 232.089 73.04C230.596 69.96 229.849 66.4133 229.849 62.4ZM259.109 62.47C259.109 59.4833 258.269 57.1267 256.589 55.4C254.956 53.6733 252.949 52.81 250.569 52.81C248.189 52.81 246.159 53.6733 244.479 55.4C242.846 57.08 242.029 59.4133 242.029 62.4C242.029 65.3867 242.846 67.7667 244.479 69.54C246.159 71.2667 248.189 72.13 250.569 72.13C252.949 72.13 254.956 71.2667 256.589 69.54C258.269 67.8133 259.109 65.4567 259.109 62.47ZM291.709 30.2V82H279.739V30.2H291.709Z" fill="white" shape-rendering="crispEdges"/>
<path d="M332.374 32.86V42.45H312.354V52.81H327.334V62.12H312.354V82H300.384V32.86H332.374ZM344.685 38.88C342.585 38.88 340.858 38.2733 339.505 37.06C338.198 35.8 337.545 34.26 337.545 32.44C337.545 30.5733 338.198 29.0333 339.505 27.82C340.858 26.56 342.585 25.93 344.685 25.93C346.738 25.93 348.418 26.56 349.725 27.82C351.078 29.0333 351.755 30.5733 351.755 32.44C351.755 34.26 351.078 35.8 349.725 37.06C348.418 38.2733 346.738 38.88 344.685 38.88ZM350.635 42.94V82H338.665V42.94H350.635ZM381.079 71.85V82H374.989C370.649 82 367.266 80.95 364.839 78.85C362.413 76.7033 361.199 73.2267 361.199 68.42V52.88H356.439V42.94H361.199V33.42H373.169V42.94H381.009V52.88H373.169V68.56C373.169 69.7267 373.449 70.5667 374.009 71.08C374.569 71.5933 375.503 71.85 376.809 71.85H381.079Z" fill="#323131" shape-rendering="crispEdges"/>
<path d="M132.91 32.86H133.91V31.86H132.91V32.86ZM132.91 82V83H133.91V82H132.91ZM120.94 82H119.94V83H120.94V82ZM120.94 32.86V31.86H119.94V32.86H120.94ZM131.91 32.86V82H133.91V32.86H131.91ZM132.91 81H120.94V83H132.91V81ZM121.94 82V32.86H119.94V82H121.94ZM120.94 33.86H132.91V31.86H120.94V33.86ZM141.445 51.83L140.553 51.3773L140.548 51.3883L141.445 51.83ZM147.675 44.83L148.205 45.678L147.675 44.83ZM163.425 43.99L162.97 44.8805L162.978 44.8844L163.425 43.99ZM168.465 48.33L167.633 48.8847L169.465 51.6328V48.33H168.465ZM168.465 30.2V29.2H167.465V30.2H168.465ZM180.435 30.2H181.435V29.2H180.435V30.2ZM180.435 82V83H181.435V82H180.435ZM168.465 82H167.465V83H168.465V82ZM168.465 76.4H169.465V72.7897L167.607 75.8855L168.465 76.4ZM163.635 80.88L163.164 79.9976L163.156 80.0021L163.635 80.88ZM147.675 80.11L147.134 80.9512L147.145 80.958L147.675 80.11ZM141.445 73.04L140.545 73.4763L140.549 73.4845L140.553 73.4927L141.445 73.04ZM165.945 55.4L165.218 56.0873L165.228 56.0974L165.945 55.4ZM153.835 55.4L153.118 54.7026L153.118 54.7029L153.835 55.4ZM153.835 69.54L153.099 70.2175L153.109 70.2275L153.118 70.2374L153.835 69.54ZM165.945 69.54L165.228 68.8426L165.218 68.8528L165.945 69.54ZM140.205 62.4C140.205 58.5114 140.928 55.1442 142.342 52.2717L140.548 51.3883C138.975 54.5825 138.205 58.2619 138.205 62.4H140.205ZM142.337 52.2827C143.803 49.3942 145.762 47.2051 148.205 45.678L147.145 43.982C144.362 45.7216 142.167 48.1991 140.553 51.3773L142.337 52.2827ZM148.205 45.678C150.652 44.1486 153.383 43.38 156.425 43.38V41.38C153.026 41.38 149.924 42.2448 147.145 43.982L148.205 45.678ZM156.425 43.38C158.848 43.38 161.023 43.8853 162.97 44.8804L163.88 43.0996C161.627 41.948 159.136 41.38 156.425 41.38V43.38ZM162.978 44.8844C164.984 45.8877 166.525 47.2233 167.633 48.8847L169.297 47.7753C167.978 45.7967 166.159 44.239 163.872 43.0956L162.978 44.8844ZM169.465 48.33V30.2H167.465V48.33H169.465ZM168.465 31.2H180.435V29.2H168.465V31.2ZM179.435 30.2V82H181.435V30.2H179.435ZM180.435 81H168.465V83H180.435V81ZM169.465 82V76.4H167.465V82H169.465ZM167.607 75.8855C166.589 77.5824 165.12 78.9547 163.164 79.9977L164.105 81.7624C166.35 80.5653 168.101 78.9509 169.322 76.9145L167.607 75.8855ZM163.156 80.0021C161.274 81.0289 159.041 81.56 156.425 81.56V83.56C159.316 83.56 161.889 82.9711 164.114 81.7579L163.156 80.0021ZM156.425 81.56C153.383 81.56 150.652 80.7914 148.205 79.262L147.145 80.958C149.924 82.6952 153.026 83.56 156.425 83.56V81.56ZM148.216 79.2688C145.766 77.6938 143.804 75.4778 142.337 72.5873L140.553 73.4927C142.166 76.6689 144.357 79.1662 147.134 80.9512L148.216 79.2688ZM142.345 72.6037C140.928 69.6813 140.205 66.2881 140.205 62.4H138.205C138.205 66.5385 138.975 70.2387 140.545 73.4763L142.345 72.6037ZM169.465 62.47C169.465 59.2887 168.565 56.6584 166.662 54.7026L165.228 56.0974C166.685 57.5949 167.465 59.6779 167.465 62.47H169.465ZM166.671 54.7128C164.849 52.7862 162.579 51.81 159.925 51.81V53.81C162.03 53.81 163.774 54.5605 165.218 56.0872L166.671 54.7128ZM159.925 51.81C157.271 51.81 154.984 52.7852 153.118 54.7026L154.552 56.0974C156.046 54.5615 157.819 53.81 159.925 53.81V51.81ZM153.118 54.7029C151.257 56.6171 150.385 59.2277 150.385 62.4H152.385C152.385 59.599 153.146 57.5429 154.552 56.0971L153.118 54.7029ZM150.385 62.4C150.385 65.575 151.258 68.218 153.099 70.2175L154.57 68.8625C153.145 67.3153 152.385 65.1984 152.385 62.4H150.385ZM153.118 70.2374C154.984 72.1548 157.271 73.13 159.925 73.13V71.13C157.819 71.13 156.046 70.3785 154.552 68.8426L153.118 70.2374ZM159.925 73.13C162.579 73.13 164.849 72.1538 166.671 70.2272L165.218 68.8528C163.774 70.3795 162.03 71.13 159.925 71.13V73.13ZM166.662 70.2374C168.565 68.2816 169.465 65.6513 169.465 62.47H167.465C167.465 65.2621 166.685 67.3451 165.228 68.8426L166.662 70.2374ZM225.705 65.34V66.34H226.596L226.698 65.4546L225.705 65.34ZM198.615 65.34V64.34H197.535L197.618 65.4167L198.615 65.34ZM200.925 70.94L200.23 71.6594L200.243 71.6716L200.256 71.6833L200.925 70.94ZM212.265 69.05V68.05H211.626L211.357 68.6299L212.265 69.05ZM225.005 69.05L225.974 69.2967L226.291 68.05H225.005V69.05ZM221.435 75.98L220.669 75.3363L220.661 75.3468L221.435 75.98ZM215.065 80.81L215.478 81.7204L215.065 80.81ZM196.235 80.11L195.755 80.9874L196.235 80.11ZM189.235 73.11L190.109 72.6255L189.235 73.11ZM189.165 51.83L188.29 51.3455L188.284 51.3559L189.165 51.83ZM196.165 44.83L196.644 45.7074L196.165 44.83ZM216.535 44.76L216.06 45.64L216.535 44.76ZM223.395 51.55L222.52 52.0357L222.526 52.0461L223.395 51.55ZM213.665 58.69V59.69H214.665V58.69H213.665ZM211.565 53.79L212.22 53.0343L211.565 53.79ZM201.205 53.72L200.564 52.9518L200.558 52.9571L200.552 52.9626L201.205 53.72ZM198.685 58.69L197.696 58.5396L197.521 59.69H198.685V58.69ZM224.915 61.84C224.915 62.9184 224.847 64.0467 224.711 65.2254L226.698 65.4546C226.842 64.2066 226.915 63.0016 226.915 61.84H224.915ZM225.705 64.34H198.615V66.34H225.705V64.34ZM197.618 65.4167C197.817 68.0139 198.654 70.1377 200.23 71.6594L201.619 70.2206C200.489 69.129 199.785 67.5195 199.612 65.2633L197.618 65.4167ZM200.256 71.6833C201.852 73.12 203.799 73.83 206.035 73.83V71.83C204.257 71.83 202.797 71.28 201.594 70.1967L200.256 71.6833ZM206.035 73.83C207.669 73.83 209.124 73.4844 210.351 72.7399C211.583 71.9926 212.518 70.8838 213.172 69.4701L211.357 68.6299C210.845 69.7362 210.158 70.5174 209.313 71.0301C208.464 71.5456 207.387 71.83 206.035 71.83V73.83ZM212.265 70.05H225.005V68.05H212.265V70.05ZM224.036 68.8033C223.42 71.2221 222.3 73.3968 220.669 75.3364L222.2 76.6236C224.022 74.4565 225.283 72.0113 225.974 69.2967L224.036 68.8033ZM220.661 75.3468C219.084 77.2739 217.087 78.7924 214.651 79.8996L215.478 81.7204C218.176 80.4943 220.425 78.7928 222.209 76.6132L220.661 75.3468ZM214.651 79.8996C212.23 81.0002 209.503 81.56 206.455 81.56V83.56C209.753 83.56 212.766 82.9531 215.478 81.7204L214.651 79.8996ZM206.455 81.56C202.775 81.56 199.536 80.7759 196.714 79.2326L195.755 80.9874C198.906 82.7107 202.481 83.56 206.455 83.56V81.56ZM196.714 79.2326C193.897 77.692 191.699 75.4964 190.109 72.6255L188.36 73.5945C190.13 76.7903 192.599 79.2614 195.755 80.9874L196.714 79.2326ZM190.109 72.6255C188.525 69.764 187.715 66.3896 187.715 62.47H185.715C185.715 66.6704 186.585 70.3894 188.36 73.5945L190.109 72.6255ZM187.715 62.47C187.715 58.5459 188.503 55.1677 190.045 52.3041L188.284 51.3559C186.559 54.5589 185.715 58.2741 185.715 62.47H187.715ZM190.039 52.3145C191.629 49.4436 193.827 47.248 196.644 45.7074L195.685 43.9526C192.529 45.6786 190.06 48.1497 188.29 51.3455L190.039 52.3145ZM196.644 45.7074C199.465 44.165 202.726 43.38 206.455 43.38V41.38C202.437 41.38 198.838 42.2283 195.685 43.9526L196.644 45.7074ZM206.455 43.38C210.091 43.38 213.284 44.142 216.06 45.64L217.01 43.88C213.905 42.2047 210.378 41.38 206.455 41.38V43.38ZM216.06 45.64C218.831 47.1354 220.979 49.2613 222.52 52.0356L224.269 51.0644C222.543 47.9587 220.119 45.5579 217.01 43.88L216.06 45.64ZM222.526 52.0461C224.107 54.8126 224.915 58.0663 224.915 61.84H226.915C226.915 57.7737 226.042 54.1673 224.263 51.0539L222.526 52.0461ZM214.665 58.69C214.665 56.3819 213.864 54.4595 212.22 53.0343L210.91 54.5457C212.065 55.5471 212.665 56.8914 212.665 58.69H214.665ZM212.22 53.0343C210.613 51.6423 208.621 50.97 206.315 50.97V52.97C208.208 52.97 209.716 53.511 210.91 54.5457L212.22 53.0343ZM206.315 50.97C204.099 50.97 202.163 51.6199 200.564 52.9518L201.845 54.4882C203.047 53.4868 204.517 52.97 206.315 52.97V50.97ZM200.552 52.9626C198.981 54.3168 198.051 56.2099 197.696 58.5396L199.673 58.8404C199.972 56.8768 200.722 55.4566 201.858 54.4774L200.552 52.9626ZM198.685 59.69H213.665V57.69H198.685V59.69ZM232.089 51.83L231.198 51.3773L231.192 51.3883L232.089 51.83ZM238.319 44.83L238.849 45.678L238.319 44.83ZM254.279 44.06L253.801 44.9379L253.809 44.9423L254.279 44.06ZM259.109 48.47L258.258 48.9941L260.109 52.003V48.47H259.109ZM259.109 42.94V41.94H258.109V42.94H259.109ZM271.079 42.94H272.079V41.94H271.079V42.94ZM271.079 82V83H272.079V82H271.079ZM259.109 82H258.109V83H259.109V82ZM259.109 76.47H260.109V73.057L258.268 75.9303L259.109 76.47ZM254.209 80.88L253.739 79.9976L253.731 80.0021L254.209 80.88ZM238.319 80.11L237.779 80.9512L237.789 80.958L238.319 80.11ZM232.089 73.04L231.19 73.4763L231.194 73.4845L231.198 73.4927L232.089 73.04ZM256.589 55.4L255.863 56.0873L255.873 56.0974L256.589 55.4ZM244.479 55.4L243.763 54.7026L243.762 54.7029L244.479 55.4ZM244.479 69.54L243.744 70.2175L243.753 70.2275L243.763 70.2374L244.479 69.54ZM256.589 69.54L255.873 68.8426L255.863 68.8528L256.589 69.54ZM230.849 62.4C230.849 58.5114 231.572 55.1442 232.987 52.2717L231.192 51.3883C229.62 54.5825 228.849 58.2619 228.849 62.4H230.849ZM232.981 52.2827C234.448 49.3942 236.406 47.2051 238.849 45.678L237.789 43.982C235.006 45.7216 232.811 48.1991 231.198 51.3773L232.981 52.2827ZM238.849 45.678C241.296 44.1486 244.028 43.38 247.069 43.38V41.38C243.671 41.38 240.569 42.2448 237.789 43.982L238.849 45.678ZM247.069 43.38C249.685 43.38 251.918 43.9111 253.801 44.9379L254.758 43.1821C252.534 41.9689 249.96 41.38 247.069 41.38V43.38ZM253.809 44.9423C255.771 45.9886 257.241 47.3419 258.258 48.9941L259.961 47.9459C258.738 45.9581 256.988 44.3714 254.75 43.1776L253.809 44.9423ZM260.109 48.47V42.94H258.109V48.47H260.109ZM259.109 43.94H271.079V41.94H259.109V43.94ZM270.079 42.94V82H272.079V42.94H270.079ZM271.079 81H259.109V83H271.079V81ZM260.109 82V76.47H258.109V82H260.109ZM258.268 75.9303C257.202 77.592 255.703 78.9499 253.739 79.9977L254.68 81.7624C256.915 80.5701 258.683 78.988 259.951 77.0097L258.268 75.9303ZM253.731 80.0021C251.848 81.0289 249.615 81.56 246.999 81.56V83.56C249.89 83.56 252.464 82.9711 254.688 81.7579L253.731 80.0021ZM246.999 81.56C244.008 81.56 241.299 80.7929 238.849 79.262L237.789 80.958C240.567 82.6937 243.645 83.56 246.999 83.56V81.56ZM238.86 79.2688C236.41 77.6938 234.449 75.4778 232.981 72.5873L231.198 73.4927C232.81 76.6689 235.002 79.1662 237.779 80.9512L238.86 79.2688ZM232.989 72.6037C231.572 69.6813 230.849 66.2881 230.849 62.4H228.849C228.849 66.5385 229.62 70.2387 231.19 73.4763L232.989 72.6037ZM260.109 62.47C260.109 59.2887 259.209 56.6584 257.306 54.7026L255.873 56.0974C257.33 57.5949 258.109 59.6779 258.109 62.47H260.109ZM257.316 54.7128C255.493 52.7862 253.224 51.81 250.569 51.81V53.81C252.675 53.81 254.419 54.5605 255.863 56.0872L257.316 54.7128ZM250.569 51.81C247.916 51.81 245.628 52.7852 243.763 54.7026L245.196 56.0974C246.69 54.5615 248.463 53.81 250.569 53.81V51.81ZM243.762 54.7029C241.901 56.6171 241.029 59.2277 241.029 62.4H243.029C243.029 59.599 243.791 57.5429 245.196 56.0971L243.762 54.7029ZM241.029 62.4C241.029 65.575 241.902 68.218 243.744 70.2175L245.215 68.8625C243.79 67.3153 243.029 65.1984 243.029 62.4H241.029ZM243.763 70.2374C245.628 72.1548 247.916 73.13 250.569 73.13V71.13C248.463 71.13 246.69 70.3785 245.196 68.8426L243.763 70.2374ZM250.569 73.13C253.224 73.13 255.493 72.1538 257.316 70.2272L255.863 68.8528C254.419 70.3795 252.675 71.13 250.569 71.13V73.13ZM257.306 70.2374C259.209 68.2816 260.109 65.6513 260.109 62.47H258.109C258.109 65.2621 257.33 67.3451 255.873 68.8426L257.306 70.2374ZM291.709 30.2H292.709V29.2H291.709V30.2ZM291.709 82V83H292.709V82H291.709ZM279.739 82H278.739V83H279.739V82ZM279.739 30.2V29.2H278.739V30.2H279.739ZM290.709 30.2V82H292.709V30.2H290.709ZM291.709 81H279.739V83H291.709V81ZM280.739 82V30.2H278.739V82H280.739ZM279.739 31.2H291.709V29.2H279.739V31.2ZM332.374 32.86H333.374V31.86H332.374V32.86ZM332.374 42.45V43.45H333.374V42.45H332.374ZM312.354 42.45V41.45H311.354V42.45H312.354ZM312.354 52.81H311.354V53.81H312.354V52.81ZM327.334 52.81H328.334V51.81H327.334V52.81ZM327.334 62.12V63.12H328.334V62.12H327.334ZM312.354 62.12V61.12H311.354V62.12H312.354ZM312.354 82V83H313.354V82H312.354ZM300.384 82H299.384V83H300.384V82ZM300.384 32.86V31.86H299.384V32.86H300.384ZM331.374 32.86V42.45H333.374V32.86H331.374ZM332.374 41.45H312.354V43.45H332.374V41.45ZM311.354 42.45V52.81H313.354V42.45H311.354ZM312.354 53.81H327.334V51.81H312.354V53.81ZM326.334 52.81V62.12H328.334V52.81H326.334ZM327.334 61.12H312.354V63.12H327.334V61.12ZM311.354 62.12V82H313.354V62.12H311.354ZM312.354 81H300.384V83H312.354V81ZM301.384 82V32.86H299.384V82H301.384ZM300.384 33.86H332.374V31.86H300.384V33.86ZM339.505 37.06L338.811 37.7798L338.824 37.7924L338.837 37.8046L339.505 37.06ZM339.505 27.82L340.185 28.5528L340.186 28.5519L339.505 27.82ZM349.725 27.82L349.031 28.5398L349.044 28.5524L349.057 28.5646L349.725 27.82ZM349.725 37.06L350.405 37.7928L350.406 37.7919L349.725 37.06ZM350.635 42.94H351.635V41.94H350.635V42.94ZM350.635 82V83H351.635V82H350.635ZM338.665 82H337.665V83H338.665V82ZM338.665 42.94V41.94H337.665V42.94H338.665ZM344.685 37.88C342.791 37.88 341.314 37.339 340.173 36.3154L338.837 37.8046C340.402 39.2077 342.379 39.88 344.685 39.88V37.88ZM340.199 36.3402C339.088 35.2692 338.545 33.9893 338.545 32.44H336.545C336.545 34.5307 337.308 36.3308 338.811 37.7798L340.199 36.3402ZM338.545 32.44C338.545 30.8367 339.093 29.5671 340.185 28.5528L338.824 27.0872C337.304 28.4995 336.545 30.3099 336.545 32.44H338.545ZM340.186 28.5519C341.329 27.4878 342.801 26.93 344.685 26.93V24.93C342.369 24.93 340.387 25.6322 338.824 27.0881L340.186 28.5519ZM344.685 26.93C346.516 26.93 347.935 27.4836 349.031 28.5398L350.419 27.1002C348.901 25.6364 346.96 24.93 344.685 24.93V26.93ZM349.057 28.5646C350.193 29.5825 350.755 30.8487 350.755 32.44H352.755C352.755 30.2979 351.964 28.4842 350.393 27.0754L349.057 28.5646ZM350.755 32.44C350.755 33.9774 350.197 35.2538 349.044 36.3281L350.406 37.7919C351.959 36.3462 352.755 34.5426 352.755 32.44H350.755ZM349.044 36.3272C347.951 37.3428 346.527 37.88 344.685 37.88V39.88C346.95 39.88 348.886 39.2039 350.405 37.7928L349.044 36.3272ZM349.635 42.94V82H351.635V42.94H349.635ZM350.635 81H338.665V83H350.635V81ZM339.665 82V42.94H337.665V82H339.665ZM338.665 43.94H350.635V41.94H338.665V43.94ZM381.079 71.85H382.079V70.85H381.079V71.85ZM381.079 82V83H382.079V82H381.079ZM364.839 78.85L364.177 79.599L364.185 79.6062L364.839 78.85ZM361.199 52.88H362.199V51.88H361.199V52.88ZM356.439 52.88H355.439V53.88H356.439V52.88ZM356.439 42.94V41.94H355.439V42.94H356.439ZM361.199 42.94V43.94H362.199V42.94H361.199ZM361.199 33.42V32.42H360.199V33.42H361.199ZM373.169 33.42H374.169V32.42H373.169V33.42ZM373.169 42.94H372.169V43.94H373.169V42.94ZM381.009 42.94H382.009V41.94H381.009V42.94ZM381.009 52.88V53.88H382.009V52.88H381.009ZM373.169 52.88V51.88H372.169V52.88H373.169ZM374.009 71.08L373.334 71.8172L374.009 71.08ZM380.079 71.85V82H382.079V71.85H380.079ZM381.079 81H374.989V83H381.079V81ZM374.989 81C370.805 81 367.683 79.9885 365.494 78.0938L364.185 79.6062C366.849 81.9114 370.494 83 374.989 83V81ZM365.502 78.101C363.376 76.2206 362.199 73.0804 362.199 68.42H360.199C360.199 73.3729 361.449 77.1861 364.177 79.599L365.502 78.101ZM362.199 68.42V52.88H360.199V68.42H362.199ZM361.199 51.88H356.439V53.88H361.199V51.88ZM357.439 52.88V42.94H355.439V52.88H357.439ZM356.439 43.94H361.199V41.94H356.439V43.94ZM362.199 42.94V33.42H360.199V42.94H362.199ZM361.199 34.42H373.169V32.42H361.199V34.42ZM372.169 33.42V42.94H374.169V33.42H372.169ZM373.169 43.94H381.009V41.94H373.169V43.94ZM380.009 42.94V52.88H382.009V42.94H380.009ZM381.009 51.88H373.169V53.88H381.009V51.88ZM372.169 52.88V68.56H374.169V52.88H372.169ZM372.169 68.56C372.169 69.858 372.478 71.0329 373.334 71.8172L374.685 70.3428C374.421 70.1004 374.169 69.5954 374.169 68.56H372.169ZM373.334 71.8172C374.172 72.5855 375.419 72.85 376.809 72.85V70.85C375.587 70.85 374.967 70.6012 374.685 70.3428L373.334 71.8172ZM376.809 72.85H381.079V70.85H376.809V72.85Z" fill="black" fill-opacity="0.5" mask="url(#path-1-outside-1_4372_43)"/>
</g>
<g filter="url(#filter1_d_4372_43)">
<g filter="url(#filter2_d_4372_43)">
<ellipse cx="54.5" cy="50" rx="50.5" ry="50" fill="white"/>
</g>
<path fill-rule="evenodd" clip-rule="evenodd" d="M48.1813 5.31982C44.6198 5.77868 39.5358 7.12843 36.8746 8.32177C30.0536 11.3807 25.1588 14.855 20.7155 19.7917C19.9849 20.6034 19.1407 21.5244 18.8395 21.8385C17.7559 22.9681 14.4405 28.3692 13.2163 30.9992C11.8737 33.8844 9.88945 39.7447 9.88945 40.8255C9.88945 41.189 9.76553 41.8838 9.61387 42.3701C9.46221 42.8561 9.26201 43.7 9.16914 44.2449L9 45.2358H24.2187H39.4375V50.5686V55.9014L24.2585 55.9804L9.0796 56.0594L9.7592 59.4132C10.6034 63.5786 11.6804 66.8385 13.3855 70.3892C14.9096 73.564 14.8418 73.45 17.4733 77.2493C22.3464 84.2846 29.1644 89.6863 37.1761 92.8587C43.8715 95.5097 46.5067 96 54.0607 96C60.1943 96 61.802 95.7969 66.5734 94.4201C73.8977 92.3063 81.2084 87.8494 86.3663 82.3537C92.7523 75.5498 96.248 68.7303 98.4388 58.8034C99.2007 55.3505 99.1833 45.8647 98.4081 42.1869C96.8719 34.8991 93.757 27.9707 89.4294 22.2165C88.6277 21.1503 84.0881 16.5117 82.5574 15.1943C81.2588 14.0769 78.3727 12.0027 78.1164 12.0027C78.0127 12.0027 77.7133 11.8082 77.4516 11.5707C76.8296 11.006 72.7004 8.95076 70.105 7.91352C63.9656 5.46068 55.1685 4.42009 48.1813 5.31982ZM41.7311 24.5794C41.2556 25.495 41.2233 27.5003 41.3068 50.9204C41.413 80.6729 40.9399 77.5541 45.3465 77.5541C47.8988 77.5541 48.1888 77.4941 48.6163 76.8764C49.0321 76.2764 49.0858 73.2729 49.0858 50.5713C49.0858 27.8698 49.0321 24.8663 48.6163 24.2663C48.1858 23.6443 47.9039 23.5885 45.1966 23.5885H42.246L41.7311 24.5794ZM51.3272 24.2206C50.7833 24.8282 50.761 25.8566 50.7528 50.7329C50.7426 80.8689 50.252 77.5288 54.6924 77.5444C56.9739 77.5526 57.5184 77.4605 57.9336 76.9965C58.3898 76.487 58.4326 74.2098 58.4326 50.5183C58.4326 25.7941 58.4073 24.5746 57.8812 24.0931C57.4539 23.7023 56.7179 23.5885 54.6113 23.5885C52.2438 23.5885 51.8199 23.6703 51.3272 24.2206ZM60.7407 30.244C60.2872 30.7507 60.2417 32.6087 60.2417 50.6497C60.2417 68.2873 60.2944 70.5514 60.7154 70.9773C61.0787 71.3444 61.8478 71.4563 64.0103 71.4563C66.6985 71.4563 66.8604 71.4185 67.4559 70.6529C68.0469 69.8935 68.0809 69.4694 68.0809 62.8782V55.9069L69.6639 55.8972C72.306 55.881 72.4363 55.6542 72.5514 50.8735C72.6485 46.8386 72.6389 46.7681 71.8866 46.0074C71.2718 45.3858 70.828 45.2358 69.6021 45.2358H68.0809V38.2644C68.0809 31.6733 68.0469 31.2492 67.4559 30.4897C66.8613 29.7251 66.6964 29.6864 64.0353 29.6864C61.7097 29.6864 61.1559 29.7803 60.7407 30.244Z" fill="#00ADEC"/>
</g>
<defs>
<filter id="filter0_d_4372_43" x="115.94" y="24.9301" width="270.139" height="66.63" filterUnits="userSpaceOnUse" color-interpolation-filters="sRGB">
<feFlood flood-opacity="0" result="BackgroundImageFix"/>
<feColorMatrix in="SourceAlpha" type="matrix" values="0 0 0 0 0 0 0 0 0 0 0 0 0 0 0 0 0 0 127 0" result="hardAlpha"/>
<feOffset dy="4"/>
<feGaussianBlur stdDeviation="2"/>
<feComposite in2="hardAlpha" operator="out"/>
<feColorMatrix type="matrix" values="0 0 0 0 0 0 0 0 0 0 0 0 0 0 0 0 0 0 0.25 0"/>
<feBlend mode="normal" in2="BackgroundImageFix" result="effect1_dropShadow_4372_43"/>
<feBlend mode="normal" in="SourceGraphic" in2="effect1_dropShadow_4372_43" result="shape"/>
</filter>
<filter id="filter1_d_4372_43" x="0" y="0" width="109" height="108" filterUnits="userSpaceOnUse" color-interpolation-filters="sRGB">
<feFlood flood-opacity="0" result="BackgroundImageFix"/>
<feColorMatrix in="SourceAlpha" type="matrix" values="0 0 0 0 0 0 0 0 0 0 0 0 0 0 0 0 0 0 127 0" result="hardAlpha"/>
<feOffset dy="4"/>
<feGaussianBlur stdDeviation="2"/>
<feComposite in2="hardAlpha" operator="out"/>
<feColorMatrix type="matrix" values="0 0 0 0 0 0 0 0 0 0 0 0 0 0 0 0 0 0 0.25 0"/>
<feBlend mode="normal" in2="BackgroundImageFix" result="effect1_dropShadow_4372_43"/>
<feBlend mode="normal" in="SourceGraphic" in2="effect1_dropShadow_4372_43" result="shape"/>
</filter>
<filter id="filter2_d_4372_43" x="0" y="0" width="109" height="108" filterUnits="userSpaceOnUse" color-interpolation-filters="sRGB">
<feFlood flood-opacity="0" result="BackgroundImageFix"/>
<feColorMatrix in="SourceAlpha" type="matrix" values="0 0 0 0 0 0 0 0 0 0 0 0 0 0 0 0 0 0 127 0" result="hardAlpha"/>
<feOffset dy="4"/>
<feGaussianBlur stdDeviation="2"/>
<feComposite in2="hardAlpha" operator="out"/>
<feColorMatrix type="matrix" values="0 0 0 0 0 0 0 0 0 0 0 0 0 0 0 0 0 0 0.25 0"/>
<feBlend mode="normal" in2="BackgroundImageFix" result="effect1_dropShadow_4372_43"/>
<feBlend mode="normal" in="SourceGraphic" in2="effect1_dropShadow_4372_43" result="shape"/>
</filter>
</defs>
</svg>
