<svg width="203" height="197" viewBox="0 0 203 197" fill="none" xmlns="http://www.w3.org/2000/svg">
<ellipse cx="101.159" cy="98.055" rx="101.013" ry="98.055" fill="#0081D9"/>
<path d="M129.212 76.0839H131.983C133.018 76.0839 134.011 76.4768 134.743 77.1763C135.475 77.8757 135.886 78.8243 135.886 79.8135V105.921C135.886 106.91 135.475 107.859 134.743 108.558C134.011 109.257 133.018 109.65 131.983 109.65H124.176L107.899 87.8844C106.952 86.6187 105.615 85.6675 104.075 85.164C102.534 84.6604 100.867 84.6296 99.3075 85.076L89.6037 87.8583C88.2538 88.2444 86.8197 88.2742 85.4535 87.9446C84.0873 87.615 82.8399 86.9382 81.8437 85.986L80.7 84.8932C80.2917 84.5032 79.979 84.0314 79.7845 83.5119C79.5901 82.9924 79.5186 82.4382 79.5754 81.8892C79.6321 81.3401 79.8157 80.81 80.1127 80.3369C80.4098 79.8638 80.813 79.4596 81.2933 79.1534L102.376 65.7267C103.634 64.9245 105.109 64.489 106.622 64.4731C108.135 64.4572 109.62 64.8616 110.897 65.6372L127.119 75.5021C127.744 75.8812 128.472 76.0829 129.212 76.0839ZM73.5334 107.021L67.2255 112.295C66.7944 112.656 66.4518 113.103 66.2221 113.605C65.9924 114.107 65.8813 114.651 65.8966 115.199C65.9118 115.746 66.0532 116.284 66.3105 116.773C66.5678 117.263 66.9349 117.692 67.3855 118.031L87.449 133.099C87.8901 133.43 88.4008 133.667 88.9464 133.793C89.492 133.919 90.0596 133.931 90.6106 133.829C91.1615 133.726 91.6828 133.511 92.1389 133.198C92.5949 132.886 92.9751 132.483 93.2534 132.017L96.0014 127.422C96.8197 126.054 97.1634 124.473 96.9831 122.906C96.8029 121.34 96.108 119.868 94.9982 118.702L84.4512 107.618C83.0758 106.172 81.1615 105.299 79.1199 105.188C77.0783 105.076 75.0724 105.734 73.5334 107.021ZM81.4143 72.3543H65.6212C64.5859 72.3543 63.5931 72.7472 62.8611 73.4466C62.129 74.1461 61.7178 75.0947 61.7178 76.0839V104.116C61.718 105.62 62.1942 107.089 63.084 108.33L63.3728 108.084L69.6768 102.81C72.3701 100.558 75.8807 99.4063 79.4537 99.6016C83.0268 99.7969 86.377 101.324 88.784 103.855L99.331 114.939C101.272 116.979 102.487 119.553 102.803 122.293C103.119 125.034 102.518 127.799 101.087 130.193L98.5308 134.467C99.6338 134.867 100.817 135.023 101.992 134.922C103.167 134.822 104.303 134.469 105.315 133.889L122.529 124.021C122.99 123.756 123.39 123.402 123.701 122.983C124.013 122.563 124.231 122.087 124.34 121.583C124.45 121.079 124.449 120.559 124.338 120.056C124.227 119.552 124.009 119.076 123.696 118.657L103.137 91.1366C102.9 90.8205 102.566 90.5831 102.181 90.4573C101.796 90.3316 101.38 90.324 100.99 90.4354L91.286 93.214C88.9237 93.8911 86.4136 93.9446 84.022 93.3687C81.6304 92.7928 79.4466 91.6091 77.7022 89.9431L76.5585 88.8504C75.5373 87.8752 74.7553 86.6956 74.2689 85.3967C73.7825 84.0978 73.6038 82.712 73.7457 81.3392C73.8876 79.9664 74.3465 78.6407 75.0894 77.4578C75.8323 76.2749 76.8407 75.2643 78.0418 74.4988L81.4143 72.3543Z" fill="white"/>
</svg>
