<svg width="189" height="193" viewBox="0 0 189 193" fill="none" xmlns="http://www.w3.org/2000/svg">
<ellipse cx="94.3384" cy="96.2558" rx="94.3384" ry="96.2558" fill="#0081D9"/>
<path d="M109.92 106.84L100.006 115.633L105.441 120.42L120.752 106.84L105.441 93.2605L100.006 98.0473L109.92 106.84ZM77.9966 106.84L87.9104 98.0473L82.475 93.2605L67.1641 106.84L82.475 120.42L87.9104 115.633L77.9966 106.84Z" fill="white"/>
<path d="M67.1642 72.8909C69.2782 72.8909 70.9919 71.371 70.9919 69.496C70.9919 67.621 69.2782 66.1011 67.1642 66.1011C65.0502 66.1011 63.3364 67.621 63.3364 69.496C63.3364 71.371 65.0502 72.8909 67.1642 72.8909Z" fill="white"/>
<path d="M55.6808 72.8909C57.7948 72.8909 59.5085 71.371 59.5085 69.496C59.5085 67.621 57.7948 66.1011 55.6808 66.1011C53.5668 66.1011 51.853 67.621 51.853 69.496C51.853 71.371 53.5668 72.8909 55.6808 72.8909Z" fill="white"/>
<path d="M139.891 55.9163H48.0251C43.8031 55.9163 40.3696 58.9649 40.3696 62.7061V130.604C40.3696 134.349 43.8031 137.394 48.0251 137.394H139.891C144.113 137.394 147.546 134.349 147.546 130.604V62.7061C147.546 58.9649 144.113 55.9163 139.891 55.9163ZM139.891 62.7061V76.2858H48.0251V62.7061H139.891ZM48.0251 130.604V83.0756H139.891V130.604H48.0251Z" fill="white"/>
</svg>
